<?xml version="1.0" encoding="utf-8"?>
<svg version="1.1" xmlns="http://www.w3.org/2000/svg" y="0px" width="200px" height="200px" viewBox="0 0 200 200">
<path fill="#ed6103" d="M1.6,110.6h17.9c0.9,0,1.6,0.7,1.6,1.6v64.2c0,1.3,1.1,2.4,2.4,2.4l43.1,0c0.9,0,1.6,0.7,1.6,1.6v17.9
	c0,0.9-0.7,1.6-1.6,1.6l-60.2,0c-3.6,0-6.5-2.9-6.5-6.5v-81.3C0,111.3,0.7,110.6,1.6,110.6z"/>
<path fill="#ed6103" d="M110.6,198.4v-17.9c0-0.9,0.7-1.6,1.6-1.6h64.2c1.3,0,2.4-1.1,2.4-2.4l0-43.1c0-0.9,0.7-1.6,1.6-1.6h17.9
	c0.9,0,1.6,0.7,1.6,1.6l0,60.2c0,3.6-2.9,6.5-6.5,6.5h-81.3C111.3,200,110.6,199.3,110.6,198.4z"/>
<path fill="#ed6103" d="M198.4,89.4h-17.9c-0.9,0-1.6-0.7-1.6-1.6V23.6c0-1.3-1.1-2.4-2.4-2.4l-43.1,0c-0.9,0-1.6-0.7-1.6-1.6V1.6
	c0-0.9,0.7-1.6,1.6-1.6l60.2,0c3.6,0,6.5,2.9,6.5,6.5v81.3C200,88.7,199.3,89.4,198.4,89.4z"/>
<path fill="#ed6103" d="M89.4,1.6v17.9c0,0.9-0.7,1.6-1.6,1.6H23.6c-1.3,0-2.4,1.1-2.4,2.4l0,43.1c0,0.9-0.7,1.6-1.6,1.6H1.6
	c-0.9,0-1.6-0.7-1.6-1.6L0,6.5C0,2.9,2.9,0,6.5,0h81.3C88.7,0,89.4,0.7,89.4,1.6z"/>
</svg>